#!OML:ASF C:\ViconDB\ViconDB\414\Spring2016\041811\Spring2016.ASF
:FULLY-SPECIFIED
:DEGREES
202
root 8.55393 18.7887 -44.8221 -179.265 0.98963 186.599
lowerback -3.10414 5.53832 1.9623
upperback -0.454387 7.35351 1.65903
thorax 1.28893 3.70325 0.920196
lowerneck -11.5235 -7.26601 -14.2049
upperneck 21.9324 -13.1013 17.2723
head 11.0922 -6.08954 6.77708
rclavicle 5.47807e-014 1.59028e-015
rhumerus -41.0584 25.3758 -95.0195
rradius 133.051
rwrist 8.32243
rhand -32.3525 -9.87788
rfingers 7.12502
rthumb -5.58905 -39.7842
lclavicle 5.47807e-014 1.59028e-015
lhumerus -96.7489 -19.5225 99.4677
lradius 83.5296
lwrist -12.7539
lhand -33.2521 7.36555
lfingers 7.12502
lthumb -6.45763 37.2471
rfemur 28.7921 -11.096 21.4169
rtibia 16.5003
rfoot -156.066 -4.63113
rtoes -8.53806
lfemur -36.0824 -0.200894 -13.8817
ltibia 38.2479
lfoot -8.75475 0.848589
ltoes -8.3043
203
root 8.51856 18.8233 -45.3254 -179.567 1.11261 186.708
lowerback -3.1934 5.58766 1.99331
upperback -0.260885 7.41342 1.85072
thorax 1.516 3.736 1.12293
lowerneck -11.4375 -7.34317 -14.9026
upperneck 21.6448 -12.9627 17.3354
head 10.9991 -6.05898 6.94298
rclavicle 4.71772e-014 5.56597e-015
rhumerus -42.0859 26.732 -95.0331
rradius 133.899
rwrist 8.54274
rhand -31.8059 -8.87179
rfingers 7.12502
rthumb -5.06133 -38.7913
lclavicle 4.71772e-014 5.56597e-015
lhumerus -95.7594 -18.8352 99.1027
lradius 84.6003
lwrist -12.1468
lhand -33.8112 8.08777
lfingers 7.12502
lthumb -6.99733 37.9521
rfemur 28.1837 -10.6682 21.2791
rtibia 20.7883
rfoot -157.102 -4.99833
rtoes -8.41501
lfemur -35.3989 -0.526345 -13.7105
ltibia 36.171
lfoot -7.9264 1.23282
ltoes -8.00051
204
root 8.47591 18.824 -45.82 -180.084 1.19234 187.044
lowerback -2.95679 5.59297 2.38416
upperback -0.092004 7.41784 2.05464
thorax 1.57993 3.74486 1.10465
lowerneck -11.177 -7.19911 -15.3713
upperneck 21.3367 -12.5869 17.3937
head 10.7975 -5.91712 7.10986
rclavicle 3.18366e-015 -1.19271e-014
rhumerus -43.3401 27.5555 -95.312
rradius 134.313
rwrist 9.46123
rhand -31.6273 -8.17731
rfingers 7.12502
rthumb -4.88883 -38.1009
lclavicle 3.18366e-015 -1.19271e-014
lhumerus -94.6859 -18.21 98.8758
lradius 85.5001
lwrist -11.1435
lhand -34.1869 8.56154
lfingers 7.12502
lthumb -7.35993 38.4135
rfemur 27.3479 -10.5753 21.1537
rtibia 25.788
rfoot -158.09 -5.23143
rtoes -8.61803
lfemur -34.5327 -1.05733 -13.2804
ltibia 34.9179
lfoot -8.02993 2.8421
ltoes -7.52056
205
root 8.43459 18.8103 -46.3126 -180.651 1.20717 187.462
lowerback -2.71782 5.57824 3.0201
upperback 0.183149 7.38584 2.18795
thorax 1.79192 3.7391 0.889234
lowerneck -11.8234 -7.25467 -15.5567
upperneck 21.6833 -12.4246 17.0018
head 11.0054 -5.83614 7.01592
rclavicle 1.71234e-014 8.74653e-015
rhumerus -44.4142 27.6857 -95.6085
rradius 134.408
rwrist 9.89581
rhand -31.154 -7.13149
rfingers 7.12502
rthumb -4.43182 -37.0651
lclavicle 1.71234e-014 8.74653e-015
lhumerus -93.1722 -17.8088 98.77
lradius 86.0904
lwrist -10.4404
lhand -34.9011 9.55433
lfingers 7.12502
lthumb -8.04929 39.381
rfemur 26.1843 -10.4077 21.1913
rtibia 31.1907
rfoot -159.516 -5.68702
rtoes -8.21601
lfemur -33.6414 -1.22965 -13.0065
ltibia 34.4172
lfoot -8.30337 4.81948
ltoes -8.66561
206
root 8.39426 18.7663 -46.7979 -181.11 1.12474 187.693
lowerback -2.54769 5.45847 3.35626
upperback 0.423914 7.22138 2.29661
thorax 1.97063 3.66547 0.808656
lowerneck -12.1954 -7.18829 -15.6423
upperneck 21.766 -12.1094 16.6682
head 11.0291 -5.68891 6.95006
rclavicle -2.81032e-014 -1.63003e-014
rhumerus -45.5065 27.3808 -95.9764
rradius 134.25
rwrist 9.77765
rhand -30.1315 -6.50128
rfingers 7.12502
rthumb -3.44444 -36.4532
lclavicle -2.81032e-014 -1.63003e-014
lhumerus -91.454 -17.3865 98.6645
lradius 86.6731
lwrist -9.60746
lhand -35.3799 10.4183
lfingers 7.12502
lthumb -8.51141 40.2267
rfemur 24.6558 -10.7429 20.7816
rtibia 37.0107
rfoot -160.816 -6.05424
rtoes -8.19099
lfemur -32.885 -0.843231 -13.1711
ltibia 34.3515
lfoot -7.88265 6.32904
ltoes -8.26158
207
root 8.36337 18.7036 -47.2899 -181.636 1.06032 187.941
lowerback -1.5738 5.55388 4.14182
upperback -0.441442 7.4029 1.78816
thorax 0.705395 3.73542 -0.283853
lowerneck -10.2609 -6.7453 -14.9341
upperneck 21.8024 -12.0712 16.6463
head 10.5895 -5.77974 6.86568
rclavicle 5.20319e-014 6.36111e-015
rhumerus -48.7607 25.1732 -98.086
rradius 133.935
rwrist 9.80362
rhand -29.2218 -6.20089
rfingers 7.12502
rthumb -2.56596 -36.1652
lclavicle 5.20319e-014 6.36111e-015
lhumerus -91.7966 -18.0962 98.8507
lradius 87.1988
lwrist -8.69661
lhand -35.8668 11.3414
lfingers 7.12502
lthumb -8.98125 41.1302
rfemur 23.0801 -11.235 20.2403
rtibia 42.9252
rfoot -162.134 -6.59919
rtoes -8.2597
lfemur -32.0869 0.0780382 -13.3825
ltibia 34.7598
lfoot -6.79378 6.36583
ltoes -7.66661
208
root 8.33795 18.6021 -47.768 -182.131 0.730312 188.04
lowerback -1.20261 5.24981 4.25522
upperback -0.385954 7.01238 1.75109
thorax 0.559654 3.53764 -0.430892
lowerneck -10.6119 -6.44014 -14.5436
upperneck 22.2101 -11.594 16.1981
head 10.6576 -5.54963 6.70573
rclavicle -6.55989e-015 -1.59028e-015
rhumerus -50.0004 23.8636 -98.7156
rradius 133.059
rwrist 9.75142
rhand -28.5846 -6.46051
rfingers 7.12502
rthumb -1.95048 -36.4313
lclavicle -6.55989e-015 -1.59028e-015
lhumerus -90.117 -17.8461 98.7521
lradius 87.5056
lwrist -7.83055
lhand -36.1628 11.8279
lfingers 7.12502
lthumb -9.2669 41.6043
rfemur 21.3412 -12.0731 19.4929
rtibia 48.8854
rfoot -163.496 -7.44663
rtoes -8.09157
lfemur -31.2428 1.59771 -13.9677
ltibia 35.5149
lfoot -4.46346 4.58673
ltoes -3.8616
209
root 8.31943 18.4879 -48.2438 -182.7 0.30198 187.898
lowerback -0.287389 4.91855 4.21121
upperback -0.593014 6.61851 1.49363
thorax -0.153315 3.32132 -0.780942
lowerneck -10.7984 -6.11632 -14.0221
upperneck 22.7801 -11.2454 15.8355
head 10.7778 -5.3885 6.54289
rclavicle 6.86553e-014 3.02153e-014
rhumerus -51.5098 21.9177 -99.6227
rradius 131.818
rwrist 10.258
rhand -28.362 -6.7807
rfingers 7.12502
rthumb -1.73558 -36.7534
lclavicle 6.86553e-014 3.02153e-014
lhumerus -88.7207 -17.8911 98.6318
lradius 87.6893
lwrist -7.26815
lhand -36.6321 12.0108
lfingers 7.12502
lthumb -9.71968 41.7665
rfemur 19.6194 -12.9408 18.387
rtibia 54.6657
rfoot -164.822 -8.4441
rtoes -7.7678
lfemur -30.4461 3.73373 -15.0347
ltibia 36.7273
lfoot -2.96696 0.737746
ltoes 2.48163
210
root 8.29623 18.3632 -48.7111 -183.267 -0.292575 187.484
lowerback 0.63381 4.68305 4.1728
upperback -0.819676 6.27171 0.904253
thorax -0.851326 3.09292 -1.45852
lowerneck -10.666 -5.86647 -13.3564
upperneck 23.1226 -11.1962 15.8699
head 10.8263 -5.34776 6.4573
rclavicle -8.15017e-015 3.57812e-014
rhumerus -52.907 19.2757 -100.53
rradius 130.319
rwrist 10.3404
rhand -28.4178 -7.30616
rfingers 7.12502
rthumb -1.78944 -37.2784
lclavicle -8.15017e-015 3.57812e-014
lhumerus -87.2978 -18.4792 98.2845
lradius 87.7956
lwrist -7.1548
lhand -36.6287 12.1264
lfingers 7.12502
lthumb -9.71643 41.8822
rfemur 17.8686 -14.1972 16.6546
rtibia 60.2865
rfoot -165.989 -9.40414
rtoes -7.44532
lfemur -29.5356 5.37059 -16.2614
ltibia 38.3086
lfoot -4.17513 -1.80393
ltoes 0.189248
211
root 8.28974 18.2481 -49.1563 -183.68 -1.52844 186.859
lowerback 1.51947 4.04059 3.52122
upperback -1.03776 5.46371 0.537416
thorax -1.63964 2.68241 -1.55616
lowerneck -10.4485 -5.5229 -13.1127
upperneck 23.2299 -10.8085 15.8271
head 10.7321 -5.17899 6.46421
rclavicle 8.74653e-015 1.11319e-014
rhumerus -54.1886 16.9622 -101.022
rradius 128.472
rwrist 10.7866
rhand -29.4904 -7.44802
rfingers 7.12502
rthumb -2.82537 -37.409
lclavicle 8.74653e-015 1.11319e-014
lhumerus -85.5083 -18.4015 98.0442
lradius 87.6872
lwrist -7.53639
lhand -36.6066 11.6053
lfingers 7.12502
lthumb -9.69514 41.3622
rfemur 15.9875 -16.0067 14.7697
rtibia 65.6358
rfoot -167.166 -10.3686
rtoes -6.96306
lfemur -28.8082 5.71539 -17.5156
ltibia 40.2267
lfoot -5.87145 -3.26443
ltoes 1.74653
212
root 8.26281 18.1079 -49.5965 -184.044 -2.35841 185.874
lowerback 2.18902 3.47727 2.67001
upperback -1.08481 4.71933 0.10485
thorax -2.13235 2.31529 -1.56267
lowerneck -10.2348 -4.92997 -12.2846
upperneck 22.8814 -9.89501 15.3593
head 10.3272 -4.72721 6.26441
rclavicle 6.16232e-015 -6.36111e-015
rhumerus -55.1531 14.6505 -101.37
rradius 126.198
rwrist 11.8478
rhand -30.1893 -8.06088
rfingers 7.12502
rthumb -3.50026 -38.0119
lclavicle 6.16232e-015 -6.36111e-015
lhumerus -83.358 -18.1979 97.7213
lradius 86.8283
lwrist -9.74589
lhand -36.922 11.319
lfingers 7.12502
lthumb -9.99939 41.0614
rfemur 13.926 -17.312 12.3114
rtibia 70.9007
rfoot -167.957 -10.8146
rtoes -6.6165
lfemur -28.1493 5.50805 -19.033
ltibia 42.3283
lfoot -8.19884 -3.0425
ltoes 1.4634
213
root 8.22572 17.991 -50.0257 -184.423 -3.20323 184.469
lowerback 3.07816 2.95863 1.52389
upperback -1.15429 3.99771 -0.456994
thorax -2.77244 1.96124 -1.53367
lowerneck -9.87441 -4.54139 -11.9361
upperneck 22.7049 -9.34108 15.1285
head 10.0678 -4.48049 6.19242
rclavicle 4.78077e-014 3.97569e-015
rhumerus -56.1065 11.9884 -101.484
rradius 123.593
rwrist 12.905
rhand -31.5387 -8.35818
rfingers 7.12502
rthumb -4.80331 -38.2837
lclavicle 4.78077e-014 3.97569e-015
lhumerus -81.1371 -18.1787 97.6262
lradius 86.0978
lwrist -10.6753
lhand -37.2657 11.1062
lfingers 7.12502
lthumb -10.3309 40.8324
rfemur 11.8064 -18.4335 9.26739
rtibia 75.8937
rfoot -168.313 -10.7588
rtoes -6.66877
lfemur -27.4572 4.3798 -20.9092
ltibia 44.3959
lfoot -10.317 -2.19994
ltoes 0.603042
214
root 8.19093 17.885 -50.4311 -184.821 -4.00344 182.819
lowerback 4.39245 2.57802 -0.346985
upperback -1.21523 3.3887 -0.677073
thorax -3.69172 1.68242 -0.757237
lowerneck -9.59041 -4.33529 -12.2936
upperneck 22.3343 -8.85654 15.0227
head 9.81191 -4.28853 6.2766
rclavicle 4.32357e-015 -1.27222e-014
rhumerus -56.8894 9.10172 -100.485
rradius 120.727
rwrist 13.9289
rhand -33.7804 -9.87609
rfingers 7.12502
rthumb -6.96762 -39.7414
lclavicle 4.32357e-015 -1.27222e-014
lhumerus -78.1244 -17.8186 98.3007
lradius 84.9089
lwrist -11.254
lhand -37.4683 11.5527
lfingers 7.12502
lthumb -10.5264 41.2691
rfemur 9.51604 -19.2441 6.14475
rtibia 80.6532
rfoot -168.307 -10.2406
rtoes -6.66517
lfemur -26.6722 2.9215 -22.909
ltibia 46.3475
lfoot -12.2321 -1.20253
ltoes 0.0608661
